<?xml version="1.0" encoding="UTF-8" standalone="no"?>
<svg
   xmlns:dc="http://purl.org/dc/elements/1.1/"
   xmlns:cc="http://creativecommons.org/ns#"
   xmlns:rdf="http://www.w3.org/1999/02/22-rdf-syntax-ns#"
   xmlns:svg="http://www.w3.org/2000/svg"
   xmlns="http://www.w3.org/2000/svg"
   xmlns:sodipodi="http://sodipodi.sourceforge.net/DTD/sodipodi-0.dtd"
   xmlns:inkscape="http://www.inkscape.org/namespaces/inkscape"
   id="svg89"
   version="1.1"
   viewBox="0 0 176.46068 176.46068"
   height="666.93799"
   width="666.93799"
   sodipodi:docname="butsuribu_logo.svg"
   inkscape:version="0.92.2 5c3e80d, 2017-08-06">
  <sodipodi:namedview
     pagecolor="#ffffff"
     bordercolor="#666666"
     borderopacity="1"
     objecttolerance="10"
     gridtolerance="10"
     guidetolerance="10"
     inkscape:pageopacity="0"
     inkscape:pageshadow="2"
     inkscape:window-width="1280"
     inkscape:window-height="701"
     id="namedview10"
     showgrid="false"
     inkscape:pagecheckerboard="false"
     showborder="false"
     inkscape:zoom="0.45254834"
     inkscape:cx="378.21238"
     inkscape:cy="215.48181"
     inkscape:window-x="0"
     inkscape:window-y="1"
     inkscape:window-maximized="1"
     inkscape:current-layer="svg89"
     fit-margin-top="-0.7"
     fit-margin-left="0"
     fit-margin-right="0"
     fit-margin-bottom="0"
     units="px" />
  <defs
     id="defs83" />
  <metadata
     id="metadata86">
    <rdf:RDF>
      <cc:Work
         rdf:about="">
        <dc:format>image/svg+xml</dc:format>
        <dc:type
           rdf:resource="http://purl.org/dc/dcmitype/StillImage" />
        <dc:title></dc:title>
      </cc:Work>
    </rdf:RDF>
  </metadata>
  <g
     id="layer1"
     transform="translate(-21.753501,-51.662135)">
    <path
       id="path132"
       style="fill:#058ffa;fill-opacity:1;fill-rule:nonzero;stroke:none;stroke-width:0.16852221"
       d="M 71.629184,51.662135 V 65.992828 H 36.084261 v 33.639334 h -14.33076 v 5.211178 h 14.33076 v 13.63075 h -14.33076 v 5.19173 h 14.33076 v 13.63075 h -14.33076 v 5.21118 h 14.33076 v 13.6113 h -14.33076 v 5.21118 h 14.33076 v 13.63073 h -14.33076 v 5.19175 h 14.33076 v 33.65879 h 35.544923 v 14.31131 h 5.211195 V 213.8115 h 12.658488 v 14.31131 H 94.71007 V 213.8115 h 12.67794 v 14.31131 h 5.21116 V 213.8115 h 12.65855 v 14.31131 h 5.21121 V 213.8115 h 12.67792 v 14.31131 h 5.21121 V 213.8115 h 35.54487 v -33.65879 h 14.31125 v -5.19175 h -14.31125 v -13.63073 h 14.31125 v -5.21118 h -14.31125 v -13.6113 h 14.31125 v -5.21118 h -14.31125 v -13.63075 h 14.31125 v -5.19173 h -14.31125 v -13.63075 h 14.31125 V 99.632162 H 183.90293 V 65.992828 H 148.35806 V 51.662135 h -5.21121 V 65.992828 H 130.46893 V 51.662135 h -5.21121 V 65.992828 H 112.59917 V 51.662135 h -5.21116 V 65.992828 H 94.71007 V 51.662135 H 89.498867 V 65.992828 H 76.840379 V 51.662135 Z"
       inkscape:connector-curvature="0" />
    <path
       id="path134"
       style="fill:#ffffff;fill-opacity:1;fill-rule:nonzero;stroke:none;stroke-width:0.16852221"
       d="m 109.98952,71.800455 c -5.10644,0 -12.439349,3.636824 -18.369295,20.976752 -1.089816,3.18633 -2.048413,6.642048 -2.88417,10.302113 -3.587513,-1.1065 -7.061451,-2.00056 -10.365982,-2.65002 -17.980863,-3.534746 -24.798816,0.99486 -27.351713,5.41712 -2.552872,4.42191 -3.068841,12.58837 8.98244,26.39388 2.214699,2.53688 4.719052,5.09852 7.471157,7.6521 -2.751765,2.55355 -5.256458,5.1152 -7.471157,7.65209 -12.051613,13.80553 -11.535328,21.98224 -8.98244,26.40452 1.912286,3.31201 6.219917,6.68393 15.815033,6.68362 3.216313,0 7.022829,-0.37931 11.53668,-1.2665 3.304515,-0.64945 6.778484,-1.5435 10.365982,-2.65002 0.835417,3.66006 1.794378,7.10518 2.88417,10.29148 5.929946,17.33993 13.262875,20.98738 18.369295,20.98741 5.10648,0 12.43938,-3.64748 18.36934,-20.98741 1.08984,-3.18633 2.059,-6.63139 2.89471,-10.29148 3.5875,1.10649 7.0508,2.00056 10.35535,2.65002 4.51521,0.88753 8.33072,1.2665 11.54731,1.2665 9.59346,0 13.89246,-3.37196 15.80452,-6.68362 2.55277,-4.4219 3.06878,-12.59899 -8.98257,-26.40452 -2.21472,-2.53689 -4.7193,-5.09854 -7.4711,-7.65209 2.7518,-2.55356 5.25638,-5.1152 7.4711,-7.6521 12.05169,-13.80552 11.53534,-21.97164 8.98257,-26.39388 -2.55362,-4.4219 -9.37119,-8.95151 -27.35183,-5.41712 -3.30455,0.64946 -6.76785,1.54352 -10.35535,2.65002 -0.83537,-3.660065 -1.80505,-7.115783 -2.89471,-10.302113 C 122.4289,75.437263 115.096,71.800455 109.98952,71.800455 Z m 0,5.395843 c 5.9255,0 12.27861,10.450263 16.113,27.585852 -5.2225,1.85302 -10.63527,4.12565 -16.113,6.76877 -5.47732,-2.64314 -10.890779,-4.91609 -16.113033,-6.76877 3.83408,-17.135921 10.187483,-27.585852 16.113033,-27.585852 z M 66.854696,104.56931 c 5.474931,0 12.587392,1.24324 20.785172,3.81007 -1.006382,5.44906 -1.742499,11.28278 -2.192407,17.34759 -5.027085,3.42167 -9.705103,6.97215 -13.920636,10.56819 -2.758927,-2.53858 -5.264221,-5.08311 -7.460517,-7.59888 -7.542173,-8.63947 -10.672245,-16.16845 -8.375803,-20.14661 1.513481,-2.62135 5.44709,-3.98038 11.164191,-3.98036 z m 86.280294,0 c 5.7151,0 9.64049,1.35969 11.15348,3.98036 2.29679,3.97782 -0.83351,11.5068 -8.37572,20.14661 -2.19602,2.51577 -4.69065,5.06033 -7.44986,7.59888 -4.21559,-3.59602 -8.89359,-7.14652 -13.92061,-10.56819 -0.44962,-6.06479 -1.19668,-11.89888 -2.2031,-17.34759 8.19777,-2.56685 15.32087,-3.81007 20.79581,-3.81007 z m -60.333419,5.55548 c 3.540868,1.27849 7.248659,2.78691 11.079039,4.52315 -2.13978,1.13068 -4.28114,2.3105 -6.41755,3.54402 -2.13671,1.23351 -4.239626,2.50042 -6.289818,3.78879 0.411396,-4.18523 0.965213,-8.15027 1.628329,-11.85596 z m 34.375949,0 c 0.6633,3.70604 1.2169,7.67075 1.62827,11.85596 -2.04991,-1.28837 -4.14245,-2.55494 -6.27914,-3.78879 -2.13636,-1.2332 -4.27744,-2.41302 -6.41766,-3.54402 3.83084,-1.73623 7.52771,-3.24469 11.06853,-4.52315 z m -17.188,7.43923 c 3.21532,1.61157 6.49999,3.3752 9.83386,5.30008 3.27793,1.89252 6.46216,3.85202 9.51459,5.86411 0.21218,3.58991 0.31918,7.31476 0.31918,11.16419 0,3.84976 -0.11763,7.57427 -0.32979,11.16418 -3.05194,2.01275 -6.22639,3.98223 -9.50398,5.87477 -3.33421,1.92488 -6.61854,3.68888 -9.83386,5.30005 -3.21528,-1.6112 -6.4997,-3.37521 -9.83385,-5.30005 -3.277951,-1.89252 -6.451428,-3.85205 -9.503923,-5.86412 -0.212164,-3.58991 -0.329913,-7.32505 -0.329929,-11.17483 0,-3.84943 0.117741,-7.57428 0.329929,-11.16419 3.052495,-2.01205 6.225972,-3.97158 9.503923,-5.86411 3.33415,-1.92488 6.61888,-3.6885 9.83385,-5.30008 z m 0,14.81464 c -1.9228,0 -3.84369,0.73599 -5.31071,2.20304 -2.93409,2.93408 -2.93409,7.69794 0,10.63205 2.93411,2.93408 7.68729,2.93408 10.62144,0 2.93413,-2.93411 2.93413,-7.69797 0,-10.63205 -1.46716,-1.46705 -3.38798,-2.20304 -5.31073,-2.20304 z m -24.925196,0.19158 c -0.09057,2.41766 -0.138357,4.8568 -0.138357,7.32216 -3.32e-4,2.46537 0.04782,4.91516 0.138357,7.33281 -3.353216,-2.40236 -6.518077,-4.85996 -9.450703,-7.33281 2.93261,-2.47286 6.097487,-4.91982 9.450703,-7.32216 z m 49.850386,0 c 3.35326,2.40201 6.5181,4.8493 9.45073,7.32216 -2.93263,2.47285 -6.09747,4.93045 -9.45073,7.33281 0.0905,-2.41767 0.13836,-4.86746 0.13836,-7.33281 0,-2.46537 -0.0477,-4.90451 -0.13836,-7.32216 z m -63.387885,10.93002 c 4.215533,3.59605 8.893535,7.14654 13.920636,10.5682 0.449908,6.06481 1.186049,11.88823 2.192407,17.33696 -8.197756,2.56752 -15.310241,3.82103 -20.785172,3.82072 -5.715038,0 -9.651034,-1.35971 -11.164191,-3.98036 -2.296774,-3.97782 0.83363,-11.5068 8.375803,-20.14663 2.196296,-2.51575 4.701235,-5.05996 7.460517,-7.59889 z m 76.925445,0 c 2.75921,2.53893 5.26446,5.0831 7.46048,7.59889 7.54221,8.63949 10.67251,16.16882 8.37572,20.14663 -1.51333,2.62133 -5.43636,3.98069 -11.15348,3.98036 -5.47494,-3.4e-4 -12.59804,-1.25384 -20.79581,-3.82072 1.00676,-5.44907 1.74252,-11.27214 2.19231,-17.33696 5.02718,-3.42166 9.70519,-6.97215 13.92078,-10.5682 z m -57.279028,14.31443 c 2.050207,1.28835 4.153093,2.55495 6.289818,3.7888 2.136038,1.2332 4.2771,2.41293 6.41755,3.54403 -3.83035,1.73619 -7.537847,3.24463 -11.079039,4.52313 -0.663084,-3.70604 -1.216917,-7.67073 -1.628329,-11.85596 z m 37.632548,0 c -0.41137,4.18521 -0.9653,8.15025 -1.62827,11.85596 -3.54133,-1.27848 -7.23803,-2.78697 -11.06853,-4.52313 2.14022,-1.13104 4.2813,-2.31087 6.41766,-3.54403 2.13702,-1.23354 4.22939,-2.50048 6.27914,-3.7888 z m -18.81627,10.41919 c 5.47773,2.64313 10.8905,4.92637 16.113,6.77939 -3.83439,17.13526 -10.1875,27.58589 -16.113,27.58587 -5.92551,0 -12.278961,-10.45024 -16.113033,-27.58587 5.22257,-1.85266 10.635693,-4.13623 16.113033,-6.77939 z"
       inkscape:connector-curvature="0" />
  </g>
</svg>
